<svg xmlns="http://www.w3.org/2000/svg" viewBox="0 0 1600 900" font-family="-apple-system,BlinkMacSystemFont,'Segoe UI',Roboto,sans-serif" role="img" aria-label="Lab topology: client populations authenticate at Keycloak, reach the internal or external Kong tier, call first-party MCP servers or DLP-screened vendors, and every decision feeds the audit spine.">
  <defs>
    <marker id="ar" viewBox="0 0 10 10" refX="9" refY="5" markerWidth="7" markerHeight="7" orient="auto-start-reverse">
      <path d="M0 0 L10 5 L0 10 z" fill="#B5A08A"/>
    </marker>
    <marker id="ag" viewBox="0 0 10 10" refX="9" refY="5" markerWidth="7" markerHeight="7" orient="auto-start-reverse">
      <path d="M0 0 L10 5 L0 10 z" fill="#D29A5B"/>
    </marker>
    <marker id="req" viewBox="0 0 10 10" refX="9" refY="5" markerWidth="7" markerHeight="7" orient="auto-start-reverse">
      <path d="M0 0 L10 5 L0 10 z" fill="#D8C8B2"/>
    </marker>
    <marker id="egr" viewBox="0 0 10 10" refX="9" refY="5" markerWidth="7" markerHeight="7" orient="auto-start-reverse">
      <path d="M0 0 L10 5 L0 10 z" fill="#A3BE78"/>
    </marker>
  </defs>
  <rect width="1600" height="900" fill="#1F1811"/>

  <!-- client population column -->
  <rect x="36" y="60" width="330" height="520" rx="16" fill="none" stroke="#4A3826" stroke-dasharray="7 6"/>
  <text x="56" y="96" fill="#B5A08A" font-size="19" letter-spacing="2" font-weight="700">CLIENT POPULATIONS</text>
  <g>
    <rect x="56" y="118" width="290" height="92" rx="12" fill="#241B12" stroke="#4A3826" stroke-width="1.5"/>
    <text x="76" y="156" fill="#EFE5D6" font-size="24" font-weight="650">Claude Code</text>
    <text x="76" y="186" fill="#B5A08A" font-size="18">workforce · bearer hub JWT</text>
  </g>
  <g>
    <rect x="56" y="226" width="290" height="92" rx="12" fill="#241B12" stroke="#4A3826" stroke-width="1.5"/>
    <text x="76" y="264" fill="#EFE5D6" font-size="24" font-weight="650">workforce-dpop</text>
    <text x="76" y="294" fill="#B5A08A" font-size="18">DPoP proof + cnf.jkt token</text>
  </g>
  <g>
    <rect x="56" y="334" width="290" height="92" rx="12" fill="#241B12" stroke="#4A3826" stroke-width="1.5"/>
    <text x="76" y="372" fill="#EFE5D6" font-size="24" font-weight="650">Loop agent</text>
    <text x="76" y="402" fill="#B5A08A" font-size="18">SPIFFE cert · mTLS · cnf.x5t#S256</text>
  </g>
  <g>
    <rect x="56" y="442" width="290" height="92" rx="12" fill="#241B12" stroke="#4A3826" stroke-width="1.5"/>
    <text x="76" y="480" fill="#EFE5D6" font-size="24" font-weight="650">Patient app</text>
    <text x="76" y="510" fill="#B5A08A" font-size="18">Auth0 identity · fhir_patient</text>
  </g>

  <!-- keycloak -->
  <rect x="560" y="60" width="420" height="110" rx="14" fill="#2A2013" stroke="#D29A5B" stroke-width="2"/>
  <text x="580" y="104" fill="#EFE5D6" font-size="26" font-weight="700">Keycloak — the single issuer</text>
  <text x="580" y="138" fill="#B5A08A" font-size="18">realm mcp-plane · PS256 · normalized claims · tier audiences</text>

  <!-- internal DP -->
  <rect x="560" y="230" width="420" height="150" rx="14" fill="#241B12" stroke="#D29A5B" stroke-width="2"/>
  <text x="580" y="272" fill="#EFE5D6" font-size="26" font-weight="700">Kong internal DP</text>
  <text x="580" y="304" fill="#B5A08A" font-size="18">tier wall (internal) · cnf-check · dpop-check</text>
  <text x="580" y="332" fill="#B5A08A" font-size="18">rate limits · egress: dlp-egress + vendor-token</text>
  <text x="580" y="364" fill="#E0A45C" font-size="17">VPN-only ingress</text>

  <!-- broker + vendor row -->
  <rect x="560" y="440" width="300" height="120" rx="14" fill="#241B12" stroke="#4A3826" stroke-width="1.5"/>
  <text x="580" y="482" fill="#EFE5D6" font-size="24" font-weight="700">Vendor Token Broker</text>
  <text x="580" y="512" fill="#B5A08A" font-size="18">consent · single-flight refresh</text>
  <text x="580" y="540" fill="#B5A08A" font-size="18">OpenBao custody · CAS writes</text>

  <rect x="940" y="440" width="250" height="120" rx="14" fill="#241B12" stroke="#4A3826" stroke-width="1.5"/>
  <text x="960" y="482" fill="#EFE5D6" font-size="24" font-weight="700">Vendor / SaaS</text>
  <text x="960" y="512" fill="#B5A08A" font-size="18">mockhub · GitHub</text>
  <text x="960" y="540" fill="#A3BE78" font-size="18">sees its own token only</text>

  <!-- external DP (its own lane at the bottom) -->
  <rect x="560" y="620" width="420" height="120" rx="14" fill="#241B12" stroke="#4A3826" stroke-width="2"/>
  <text x="580" y="662" fill="#EFE5D6" font-size="26" font-weight="700">Kong external DP</text>
  <text x="580" y="694" fill="#B5A08A" font-size="18">tier wall (external) · curated patient surface</text>
  <text x="580" y="722" fill="#B5A08A" font-size="18">a replayed internal token dies here — and vice versa</text>

  <!-- servers -->
  <rect x="1180" y="200" width="380" height="120" rx="14" fill="#241B12" stroke="#4A3826" stroke-width="1.5"/>
  <text x="1200" y="242" fill="#EFE5D6" font-size="25" font-weight="700">fhir-clinical MCP</text>
  <text x="1200" y="272" fill="#B5A08A" font-size="18">re-validates JWT · patient compartment</text>
  <text x="1200" y="300" fill="#B5A08A" font-size="18">→ HAPI FHIR (synthetic R4)</text>

  <rect x="1180" y="360" width="380" height="120" rx="14" fill="#241B12" stroke="#4A3826" stroke-width="1.5"/>
  <text x="1200" y="402" fill="#EFE5D6" font-size="25" font-weight="700">scheduling MCP × 2 replicas</text>
  <text x="1200" y="432" fill="#B5A08A" font-size="18">stateless · slot_hold_id handles</text>
  <text x="1200" y="460" fill="#B5A08A" font-size="18">→ Postgres</text>

  <!-- clients authenticate at Keycloak -->
  <path d="M366 96 C 460 78 505 82 560 100" fill="none" stroke="#D29A5B" stroke-width="2" marker-end="url(#ag)"/>
  <text x="394" y="64" fill="#D29A5B" font-size="17" font-weight="650">authenticate → hub JWT</text>

  <!-- clients to internal DP -->
  <path d="M346 164 C 470 164 480 285 560 293" fill="none" stroke="#D8C8B2" stroke-width="2.2" marker-end="url(#req)"/>
  <path d="M346 272 C 450 272 470 295 560 303" fill="none" stroke="#D8C8B2" stroke-width="2.2" marker-end="url(#req)"/>
  <path d="M346 380 C 450 380 470 330 560 322" fill="none" stroke="#D8C8B2" stroke-width="2.2" marker-end="url(#req)"/>

  <!-- patient app to external DP -->
  <path d="M346 500 C 460 520 480 640 560 668" fill="none" stroke="#D8C8B2" stroke-width="2.2" marker-end="url(#req)"/>
  <text x="400" y="600" fill="#D8C8B2" font-size="17">external tier</text>

  <!-- internal DP to servers -->
  <path d="M980 280 C 1080 270 1080 262 1180 260" fill="none" stroke="#D8C8B2" stroke-width="2.2" marker-end="url(#req)"/>
  <path d="M980 330 C 1080 340 1080 415 1180 420" fill="none" stroke="#D8C8B2" stroke-width="2.2" marker-end="url(#req)"/>

  <!-- external DP to fhir-clinical (curated), routed right of the vendor box -->
  <path d="M980 705 C 1420 700 1590 540 1532 330" fill="none" stroke="#D8C8B2" stroke-width="2.2" marker-end="url(#req)"/>
  <text x="1050" y="772" fill="#D8C8B2" font-size="17">curated FHIR only</text>

  <!-- egress: DP resolves at broker, then proxies to vendor -->
  <path d="M700 380 L700 440" fill="none" stroke="#A3BE78" stroke-width="2" stroke-dasharray="6 5" marker-end="url(#egr)"/>
  <text x="714" y="416" fill="#A3BE78" font-size="17">resolve</text>
  <path d="M905 380 C 960 400 1000 410 1035 440" fill="none" stroke="#A3BE78" stroke-width="2.5" marker-end="url(#egr)"/>
  <text x="898" y="406" fill="#A3BE78" font-size="17" font-weight="650" text-anchor="end">DLP ✓</text>
  <text x="1056" y="428" fill="#A3BE78" font-size="17" font-weight="650">vendor token</text>

  <!-- broker's own OAuth leg to the vendor -->
  <path d="M860 520 L940 520" fill="none" stroke="#A3BE78" stroke-width="1.5" stroke-dasharray="5 5" marker-end="url(#egr)"/>
  <text x="900" y="584" fill="#A3BE78" font-size="15" text-anchor="middle">OAuth consent · refresh</text>

  <!-- JWKS re-validation (servers + broker; the tier wall itself does no crypto) -->
  <path d="M980 100 C 1120 100 1150 170 1225 198" fill="none" stroke="#D29A5B" stroke-width="2" stroke-dasharray="6 5" marker-end="url(#ag)"/>
  <path d="M940 170 C 1080 240 1140 320 1178 396" fill="none" stroke="#D29A5B" stroke-width="2" stroke-dasharray="6 5" marker-end="url(#ag)"/>
  <text x="1060" y="86" fill="#D29A5B" font-size="17">JWKS — servers re-validate every token</text>
  <path d="M980 150 C 1060 220 1000 380 870 440" fill="none" stroke="#D29A5B" stroke-width="2" stroke-dasharray="6 5" marker-end="url(#ag)"/>
  <text x="1022" y="310" fill="#D29A5B" font-size="17">JWKS</text>

  <!-- audit spine -->
  <rect x="36" y="800" width="1524" height="64" rx="12" fill="#2A2013" stroke="#77603A"/>
  <text x="800" y="840" fill="#ECC894" font-size="21" text-anchor="middle" font-weight="650">Audit spine — one record per decision, joinable by the token's jti · Alloy → Loki · Kong traces → Tempo · Grafana dashboard</text>
  <path d="M580 560 C 500 620 480 720 500 800" fill="none" stroke="#77603A" stroke-width="1.5" stroke-dasharray="4 6"/>
  <path d="M770 740 L770 800" fill="none" stroke="#77603A" stroke-width="1.5" stroke-dasharray="4 6"/>
  <path d="M1370 480 C 1380 620 1330 740 1280 800" fill="none" stroke="#77603A" stroke-width="1.5" stroke-dasharray="4 6"/>

  <!-- legend -->
  <g font-size="16">
    <line x1="60" y1="636" x2="112" y2="636" stroke="#D8C8B2" stroke-width="2.2"/>
    <text x="124" y="641" fill="#D8C8B2">tool calls</text>
    <line x1="60" y1="668" x2="112" y2="668" stroke="#D29A5B" stroke-width="2" stroke-dasharray="6 5"/>
    <text x="124" y="673" fill="#D29A5B">identity — issue &amp; re-validate</text>
    <line x1="60" y1="700" x2="112" y2="700" stroke="#A3BE78" stroke-width="2"/>
    <text x="124" y="705" fill="#A3BE78">governed vendor egress</text>
    <line x1="60" y1="732" x2="112" y2="732" stroke="#77603A" stroke-width="1.5" stroke-dasharray="4 6"/>
    <text x="124" y="737" fill="#B5A08A">audit feed</text>
  </g>
</svg>
